<?xml version="1.0" encoding="utf-8"?>
<!-- Generator: Adobe Illustrator 27.5.0, SVG Export Plug-In . SVG Version: 6.00 Build 0)  -->
<svg version="1.1" xmlns="http://www.w3.org/2000/svg" xmlns:xlink="http://www.w3.org/1999/xlink" x="0px" y="0px"
	 viewBox="0 0 750 500" style="enable-background:new 0 0 750 500;" xml:space="preserve">
<g id="Background_Complete">
	<g>
		<g>
			<path style="fill:#F5F5F5;" d="M235.791,484.28c-0.68-13.578-1.537-25.693-9.602-36.637s-25.973-15.663-35.255-5.73
				c1.532-16.828-8.505-34.098-23.885-41.097c-15.38-6.999-34.995-3.222-46.676,8.987c-3.968-15.317-20.674-13.561-36.467-14.529
				c-15.793-0.967-33.355,20.764-39.088,47.923c0,0-9.595,40.318-8.452,40.7C37.508,484.28,235.791,484.28,235.791,484.28z"/>
		</g>
	</g>
	<g>
		<g>
			<path style="fill:#EBEBEB;" d="M557.065,454.017c-7.918-9.792-23.224-14.691-33.461-7.356
				c-1.181-11.314-8.051-21.889-17.908-27.566c-9.858-5.677-22.452-6.312-32.831-1.655c1.522-18.882-12.947-37.715-31.583-41.11
				c-18.636-3.394-38.817,9.128-44.05,27.334c-26.572-3.402-54.021,16.606-58.914,42.944c-11.668-4.608-25.557-3.118-35.981,3.862
				c-10.424,6.979-18.217,21.536-18.4,34.079l284.095-0.268C566.628,471.766,564.983,463.809,557.065,454.017z"/>
		</g>
	</g>
	<g>
		<g>
			<g>
				<g>
					<g>
						<path style="fill:#E0E0E0;" d="M436.766,14.487l-8.149,85.212c0,0-0.366,5.889-5.891,7.408
							c-5.525,1.519-11.345-22.294-11.345-22.294l-5.734,2.515l13.346,29.9l7.06,23.69l3.83,58.148l-9.262,285.262l30.899,0.094
							c0,0-3.255-271.559-2.523-283.336c0.733-11.777,24.76-46.33,24.76-46.33l-0.76-7.729l-25.059,33.679l13.164-166.211
							L436.766,14.487z"/>
					</g>
				</g>
			</g>
			<g>
				<g>
					<g>
						<path style="fill:#E0E0E0;" d="M44.526,13.957c0,0,17.437,101.159,22.673,114.774c5.237,13.615,10.473,29.326,10.473,29.326
							l37.45-67.413l6.2,3.349l-38.413,75.585c0,0,20.947,25.136,21.994,47.13c1.047,21.994,0,58.651,0,58.651l18.636,209.133
							H93.383V276.406c0,0,6.284-53.414,3.142-62.84c-3.142-9.426-20.947-39.799-20.947-39.799s-19.091-24.089-21.59-48.177
							C51.489,101.5,36.365,13.957,36.365,13.957H44.526z"/>
					</g>
				</g>
			</g>
			<g>
				<g>
					<g>
						<path style="fill:#EBEBEB;" d="M282.046,14.648c0,0-23.759,52.779-27.329,81.381l-15.094-39.784
							c-5.336,4.02,10.64,56.765,10.64,56.765s-11.986,58.988-11.801,89.379c0.184,30.391-0.078,151.06-0.078,151.06
							l-28.798,131.193l32.622,0.111c0,0,14.15-112.524,13.267-124.145c-0.883-11.62-0.809-160.893-0.809-160.893
							s6.258-70.611,11.603-91.167c5.344-20.556,37.828-93.889,37.828-93.889L282.046,14.648z"/>
					</g>
				</g>
			</g>
			<g>
				<g>
					<g>
						<path style="fill:#EBEBEB;" d="M682.789,14.282c0,0-20.409,51.794-22.463,80.391L643.151,55.96
							c-5.116,4.276,13.624,55.814,13.624,55.814s-8.853,59.224-7.063,89.398c1.79,30.175,7.903,150.038,7.903,150.038
							l-21.827,131.831l32.581-1.623c0,0,8.185-112.511,6.689-124.005c-1.496-11.495-9.308-159.757-9.308-159.757
							s2.519-70.463,6.77-91.163c4.251-20.7,31.228-92.212,31.228-92.212H682.789z"/>
					</g>
				</g>
			</g>
			<g>
				<g>
					<g>
						<path style="fill:#F5F5F5;" d="M136.279,135.874c-11.699,2.579-20.949,13.686-21.369,25.659
							c11.939-1.424,21.854-12.757,21.679-24.78"/>
					</g>
				</g>
			</g>
			<g>
				<g>
					<g>
						<path style="fill:#E0E0E0;" d="M561.625,40.89c2.067,7.513,9.592,13.151,17.383,13.023
							c-1.325-7.708-9.018-13.769-16.822-13.253"/>
					</g>
				</g>
			</g>
			<g>
				<g>
					<g>
						<path style="fill:#F5F5F5;" d="M587.201,104.551c6.607,5.293,16.821,5.456,23.594,0.378
							c-6.079-5.937-16.711-6.366-23.247-0.937"/>
					</g>
				</g>
			</g>
			<g>
				<g>
					<g>
						<path style="fill:#E0E0E0;" d="M221.212,185.46c-0.788,6.636,3.365,13.548,9.595,15.966c1.441-6.551-2.71-13.853-9.075-15.967
							"/>
					</g>
				</g>
			</g>
			<g>
				<g>
					<g>
						<path style="fill:#E0E0E0;" d="M151.775,176.163c-0.788,6.636,3.365,13.548,9.595,15.966
							c1.441-6.551-2.71-13.853-9.075-15.967"/>
					</g>
				</g>
			</g>
			<g>
				<g>
					<g>
						<path style="fill:#E0E0E0;" d="M396.059,47.271c-3.232,5.849-1.992,13.817,2.867,18.406
							c3.804-5.524,2.714-13.853-2.385-18.211"/>
					</g>
				</g>
			</g>
		</g>
	</g>
	<g>
		<g>
			<g>
				<path style="fill:#E0E0E0;" d="M368.93,105.935c-23.293,0-42.175-18.882-42.175-42.175c0-9.853,3.379-18.916,9.041-26.095
					c-8.228,7.696-13.372,18.649-13.372,30.804c0,23.293,18.882,42.175,42.175,42.175c13.44,0,25.411-6.287,33.134-16.08
					C390.193,101.616,380.066,105.935,368.93,105.935z"/>
			</g>
		</g>
		<g>
			<g>
				<path style="fill:#E0E0E0;" d="M223.154,69.375l3.462,1.302l-3.383,1.284c-0.985,0.374-1.757,1.161-2.111,2.154l-1.142,3.199
					l-1.063-3.159c-0.348-1.034-1.147-1.854-2.171-2.23l-3.402-1.248l3.36-1.231c1.013-0.371,1.806-1.178,2.161-2.197l1.115-3.208
					l1.026,3.097C221.347,68.17,222.137,68.992,223.154,69.375z"/>
			</g>
		</g>
		<g>
			<g>
				<path style="fill:#E0E0E0;" d="M496.666,107.824l3.462,1.302l-3.383,1.284c-0.985,0.374-1.757,1.161-2.111,2.153l-1.142,3.199
					l-1.063-3.159c-0.348-1.034-1.147-1.854-2.171-2.23l-3.402-1.248l3.36-1.231c1.013-0.371,1.806-1.178,2.161-2.197l1.115-3.208
					l1.026,3.097C494.859,106.619,495.649,107.441,496.666,107.824z"/>
			</g>
		</g>
		<g>
			<g>
				<path style="fill:#E0E0E0;" d="M509.45,72.88l1.731,0.651l-1.691,0.642c-0.493,0.187-0.879,0.581-1.056,1.077l-0.571,1.599
					l-0.532-1.579c-0.174-0.517-0.573-0.927-1.086-1.115l-1.701-0.624l1.68-0.616c0.507-0.186,0.903-0.589,1.08-1.098l0.558-1.604
					l0.513,1.549C508.546,72.277,508.941,72.688,509.45,72.88z"/>
			</g>
		</g>
		<g>
			<g>
				<path style="fill:#E0E0E0;" d="M201.098,108.254l1.731,0.651l-1.691,0.642c-0.493,0.187-0.878,0.581-1.056,1.077l-0.571,1.599
					l-0.532-1.579c-0.174-0.517-0.573-0.927-1.086-1.115l-1.701-0.624l1.68-0.616c0.507-0.186,0.903-0.589,1.08-1.099l0.558-1.604
					l0.513,1.549C200.195,107.652,200.589,108.063,201.098,108.254z"/>
			</g>
		</g>
		<g>
			<g>
				<path style="fill:#E0E0E0;" d="M363.081,53.263l1.731,0.651l-1.691,0.642c-0.493,0.187-0.878,0.581-1.056,1.077l-0.571,1.599
					l-0.532-1.579c-0.174-0.517-0.573-0.927-1.086-1.115l-1.701-0.624l1.68-0.615c0.507-0.186,0.903-0.589,1.08-1.098l0.558-1.604
					l0.513,1.549C362.177,52.661,362.572,53.072,363.081,53.263z"/>
			</g>
		</g>
	</g>
	<g>
		<g>
			<g>
				<path style="fill:none;stroke:#FBFBFB;stroke-miterlimit:10;" d="M512.903,441.978"/>
			</g>
		</g>
	</g>
</g>
<g id="Background_Simple" style="display:none;">
	<path style="display:inline;fill:#F5F5F5;" d="M306.807,67.545l-0.921,1.35c-7.767,11.38-8.886,26.083-2.465,38.132
		c0.825,1.549,1.763,3.038,2.81,4.453c7.539,10.182,20.527,16.12,33.299,15.225c7.511-0.527,15.211-3.219,22.373-0.996
		c9.321,2.893,14.087,12.83,17.819,21.774c3.732,8.944,8.528,18.875,17.862,21.728c5.846,1.786,12.311,0.261,17.764-2.575
		c14.437-7.508,22.982-23.828,23.6-39.926c0.618-16.098-5.806-31.802-15.218-44.836c-13.185-18.26-32.998-32.319-55.406-36
		C345.917,42.192,321.18,49.923,306.807,67.545z"/>
	
		<ellipse transform="matrix(0.2283 -0.9736 0.9736 0.2283 100.2965 547.8191)" style="display:inline;fill:#F5F5F5;" cx="395.735" cy="210.638" rx="14.354" ry="14.354"/>
	<path style="display:inline;fill:#F5F5F5;" d="M210.835,116.588c-41.213-4.109-56.883,15.401-76.864,42.352
		s-28.943,61.07-28.933,94.619c0.006,21.876,3.979,44.549,16.609,62.411c13.904,19.665,37.37,31.484,61.338,33.843
		c21.359,2.102,45.913-4.845,55.549-24.022c8.9-17.712,2.125-39.297-7.718-56.503c-7.474-13.064-17.026-26.629-15.282-41.578
		c2.257-19.336,22.126-31.427,30.407-49.046c6.206-13.203,5.206-29.536-2.564-41.883c-7.77-12.347-22.063-20.315-36.651-20.433"/>
	<circle style="display:inline;fill:#F5F5F5;" cx="253.891" cy="92.933" r="19.574"/>
</g>
<g id="Character">
	<g>
		<g>
			<g>
				<g>
					<g>
						<g>
							<g>
								<path style="fill:#263238;" d="M307.946,169.137c2.708-2.412,2.67-6.156,1.81-9.329c2.785-1.992,4.536-6.389,1.24-8.818
									c5.182-3.296-0.014-10.514-5.251-8.619c1.922-5.615-8.355-7.361-10.589-3.144c-2.29-4.594-9.722-0.776-10.026,3.534
									c-2.007-1.346-5.804-1.454-6.257,1.475c-1.577-2.299-7.554-1.533-6.794,1.9c-4.087-0.951-6.038,5.1-2.167,6.716
									c-2.651,1.892-2.231,6.29,0.73,7.646c-1.81,0.81-0.109,3.021,1.471,2.732c0.749,5.308-1.877,13.785,4.194,16.488"/>
							</g>
						</g>
					</g>
				</g>
				<g>
					<g>
						<g>
							<path style="fill:#FFBE9D;" d="M275.753,198.818l7.095,9.799l9.961,10.378l6.148-8.078c0.093-3.773,0.283-11.456,0.376-15.2
								c13.199-1.218,9.46-18.522,9.297-32.118c-0.361-9.246-8.101-16.492-17.325-16.417c-9.569,0.191-14.752,8.423-14.297,17.983
								l-1.255,30.638"/>
						</g>
					</g>
				</g>
				<g>
					<g>
						<g>
							<path style="fill:#EB996E;" d="M299.343,195.71c0,0-5.818,0.249-11.833-3.86c0,0,2.574,6.713,11.762,6.239L299.343,195.71z"
								/>
						</g>
					</g>
				</g>
				<g>
					<g>
						<g>
							<g>
								<g>
									<g>
										<path style="fill:#263238;" d="M305.917,170.983c0.03,1.609-2.641,1.683-2.62,0.04
											C303.268,169.411,305.938,169.34,305.917,170.983z"/>
									</g>
								</g>
							</g>
						</g>
					</g>
				</g>
				<g>
					<g>
						<g>
							<g>
								<g>
									<g>
										<g>
											<path style="fill:#263238;" d="M306.64,167.531c-1.544-0.715-3.602-0.768-5.161-0.222
												C301.971,165.583,306.338,165.721,306.64,167.531z"/>
										</g>
									</g>
								</g>
							</g>
						</g>
					</g>
				</g>
				<g>
					<g>
						<g>
							<g>
								<g>
									<g>
										<path style="fill:#263238;" d="M292.658,170.094c0.03,1.609-2.641,1.683-2.62,0.04
											C290.009,168.523,292.679,168.452,292.658,170.094z"/>
									</g>
								</g>
							</g>
						</g>
					</g>
				</g>
				<g>
					<g>
						<g>
							<g>
								<g>
									<g>
										<g>
											<path style="fill:#263238;" d="M292.603,166.594c-1.613-0.542-3.664-0.373-5.155,0.339
												C287.751,165.163,292.105,164.826,292.603,166.594z"/>
										</g>
									</g>
								</g>
							</g>
						</g>
					</g>
				</g>
				<g>
					<g>
						<g>
							<g>
								<g>
									<g>
										<path style="fill:#263238;" d="M297.328,178.392c-0.354-0.214,2.613-0.05,3.082-0.65
											c-0.437-2.473-3.737-11.114-3.274-11.124c0.16-0.052,1.367,3.116,2.695,7.077c0.33,1.507,1.264,2.697,1.047,4.218
											C300.493,178.937,297.165,178.366,297.328,178.392z"/>
									</g>
								</g>
							</g>
						</g>
					</g>
				</g>
				<g>
					<g>
						<path style="fill:#263238;" d="M293.187,161.589c-0.149,0.219-6.259,0.651-6.441,0.462
							C287.274,160.16,292.397,159.793,293.187,161.589z"/>
					</g>
				</g>
				<g>
					<g>
						<path style="fill:#263238;" d="M306.602,161.277c-0.359,0.162-4.432-0.122-4.767-0.331
							C302.03,159.132,306.659,159.454,306.602,161.277z"/>
					</g>
				</g>
				<g>
					<g>
						<g>
							<g>
								<path style="fill:#263238;" d="M307.124,147.695l-0.642-0.298c2.229-5.96-6.861-8.291-9.303-2.968
									c-1.008-2.028-3.553-3.149-5.73-2.522c-2.337,0.412-3.445,3.215-5.475,3.961c-6.88-7.485-18.8,5.725-11.65,10.481
									c-2.153,2.658-0.992,6.987,2.202,8.211c2.48,7.794,13.534,1.232,7.888-4.677c3.089,1.502,7.041-0.724,7.358-4.144
									c1.922,2.884,10.53,3.14,8.215-1.657C303.982,156.198,308.784,151.899,307.124,147.695z"/>
							</g>
						</g>
						<g>
							<g>
								<g>
									<g>
										<path style="fill:#263238;" d="M280.776,166.684c0.206,2.493,0.184,11.463-4.001,7.78
											c-1.491-3.459-0.775-7.552-0.883-11.25"/>
									</g>
								</g>
							</g>
						</g>
					</g>
				</g>
				<g>
					<g>
						<g>
							<g>
								<g>
									<g>
										<g>
											<g>
												<g>
													<g>
														<g>
															<g>
																<g>
																	<g>
																		<g>
																			<g>
																				<g>
																					<path style="fill:#FFBE9D;" d="M277.495,171.988c-8.923-3.087-7.753,11.696,0.012,9.02
																						C277.519,180.828,277.495,171.988,277.495,171.988z"/>
																				</g>
																			</g>
																		</g>
																	</g>
																</g>
															</g>
														</g>
													</g>
												</g>
											</g>
										</g>
									</g>
								</g>
							</g>
						</g>
					</g>
					<g>
						<g>
							<g>
								<g>
									<g>
										<g>
											<g>
												<g>
													<g>
														<g>
															<g>
																<g>
																	<g>
																		<g>
																			<g>
																				<g>
																					<g>
																						<path style="fill:#EB996E;" d="M275.604,178.616c-2.717,1.839-3.211-5.885-0.562-4.362
																							c0.263,0.882,0.308-0.837-0.687-0.61C271.466,174.154,273.165,180.991,275.604,178.616z"/>
																					</g>
																				</g>
																			</g>
																		</g>
																	</g>
																</g>
															</g>
														</g>
													</g>
												</g>
											</g>
										</g>
									</g>
								</g>
							</g>
						</g>
					</g>
				</g>
			</g>
			<g>
				<g>
					<g>
						<g>
							<g>
								<g>
									<g>
										<g>
											<g>
												<g>
													<g>
														<g>
															<path style="fill:#E8505B;" d="M271.881,454.632l0.436,18.892c0,0-19.056,6.788-19.315,10.287l36.66,0.47
																l0.528-29.464L271.881,454.632z"/>
														</g>
													</g>
												</g>
											</g>
										</g>
									</g>
								</g>
								<g style="opacity:0.6;">
									<g>
										<g>
											<g>
												<g>
													<g>
														<g>
															<g>
																<path style="fill:#FFFFFF;" d="M283.673,472.08c0.707,0.203,1.187,1.007,1.013,1.722
																	c-0.174,0.715-0.987,1.21-1.698,1.02c-0.71-0.191-1.316-1.138-1.064-1.829c0.253-0.691,1.24-1.22,1.883-0.865"/>
															</g>
														</g>
													</g>
												</g>
											</g>
										</g>
									</g>
								</g>
								<g style="opacity:0.6;">
									<g>
										<g>
											<g>
												<g>
													<g>
														<g>
															<path style="fill:#FFFFFF;" d="M289.662,484.28l-0.063-2.972l-35.126,0.661c0,0-1.641,0.689-1.471,1.841
																L289.662,484.28z"/>
														</g>
													</g>
												</g>
											</g>
										</g>
									</g>
								</g>
								<g>
									<g>
										<g>
											<g>
												<g>
													<g>
														<g>
															<g>
																<path style="fill:#263238;" d="M271.725,473.329c0.004,0.179,0.897,0.272,1.771,0.859
																	c0.889,0.564,1.333,1.345,1.499,1.276c0.165-0.033-0.088-1.106-1.158-1.798
																	C272.773,472.965,271.689,473.164,271.725,473.329z"/>
															</g>
														</g>
													</g>
												</g>
											</g>
										</g>
									</g>
								</g>
								<g>
									<g>
										<g>
											<g>
												<g>
													<g>
														<g>
															<g>
																<path style="fill:#263238;" d="M267.86,474.87c-0.043,0.173,0.728,0.487,1.326,1.252
																	c0.621,0.747,0.764,1.568,0.942,1.563c0.168,0.03,0.305-1.017-0.457-1.954
																	C268.918,474.788,267.866,474.7,267.86,474.87z"/>
															</g>
														</g>
													</g>
												</g>
											</g>
										</g>
									</g>
								</g>
								<g>
									<g>
										<g>
											<g>
												<g>
													<g>
														<g>
															<g>
																<path style="fill:#263238;" d="M265.617,479.444c0.162,0.04,0.423-0.851-0.025-1.837
																	c-0.44-0.99-1.279-1.387-1.357-1.239c-0.103,0.146,0.434,0.679,0.788,1.494
																	C265.397,478.669,265.439,479.424,265.617,479.444z"/>
															</g>
														</g>
													</g>
												</g>
											</g>
										</g>
									</g>
								</g>
								<g>
									<g>
										<g>
											<g>
												<g>
													<g>
														<g>
															<g>
																<path style="fill:#263238;" d="M272.103,469.013c0.073,0.164,0.897-0.072,1.908,0.009
																	c1.013,0.061,1.796,0.411,1.891,0.259c0.105-0.128-0.655-0.801-1.847-0.88
																	C272.864,468.312,272.017,468.871,272.103,469.013z"/>
															</g>
														</g>
													</g>
												</g>
											</g>
										</g>
									</g>
								</g>
							</g>
							<g style="opacity:0.3;">
								<g>
									<g>
										<g>
											<g>
												<g>
													<g>
														<polygon points="271.972,458.373 272.045,461.74 290.065,461.807 290.144,457.923 														"/>
													</g>
												</g>
											</g>
										</g>
									</g>
								</g>
							</g>
							<g>
								<g>
									<g>
										<g>
											<g>
												<g>
													<g>
														<g>
															<path style="fill:#263238;" d="M272.086,465.2c-0.003,0.074,0.703,0.194,1.836,0.014
																c0.564-0.09,1.229-0.266,1.928-0.566c0.349-0.15,0.707-0.331,1.061-0.546c0.171-0.106,0.372-0.213,0.56-0.424
																c0.201-0.184,0.319-0.658,0.094-0.951c-0.184-0.284-0.514-0.41-0.779-0.419c-0.27-0.012-0.49,0.04-0.69,0.086
																c-0.41,0.094-0.794,0.224-1.147,0.377c-0.705,0.31-1.279,0.705-1.707,1.089c-0.861,0.777-1.16,1.442-1.099,1.477
																c0.08,0.06,0.501-0.495,1.375-1.134c0.436-0.318,0.991-0.645,1.649-0.901c0.33-0.126,0.684-0.234,1.058-0.312
																c0.39-0.097,0.72-0.096,0.817,0.078c0.035,0.066,0.04,0.093-0.043,0.205c-0.085,0.104-0.244,0.204-0.412,0.31
																c-0.327,0.207-0.656,0.387-0.977,0.542c-0.644,0.309-1.258,0.518-1.784,0.658
																C272.776,465.063,272.084,465.103,272.086,465.2z"/>
														</g>
													</g>
												</g>
											</g>
										</g>
									</g>
								</g>
							</g>
							<g>
								<g>
									<g>
										<g>
											<g>
												<g>
													<g>
														<g>
															<path style="fill:#263238;" d="M272.315,465.46c0.063,0.028,0.426-0.609,0.507-1.767
																c0.038-0.575-0.013-1.272-0.224-2.013c-0.108-0.369-0.257-0.748-0.453-1.121c-0.21-0.365-0.466-0.853-1.159-0.942
																c-0.362-0.018-0.668,0.261-0.773,0.502c-0.124,0.246-0.151,0.459-0.197,0.671c-0.073,0.428-0.07,0.847-0.017,1.237
																c0.105,0.782,0.416,1.435,0.76,1.907c0.704,0.959,1.449,1.183,1.464,1.122c0.061-0.089-0.559-0.443-1.095-1.363
																c-0.264-0.453-0.497-1.05-0.559-1.733c-0.032-0.34-0.022-0.7,0.047-1.06c0.062-0.389,0.212-0.701,0.358-0.66
																c0.182-0.001,0.488,0.297,0.634,0.61c0.184,0.331,0.329,0.669,0.442,1.001c0.221,0.665,0.313,1.301,0.332,1.836
																C272.418,464.763,272.218,465.431,272.315,465.46z"/>
														</g>
													</g>
												</g>
											</g>
										</g>
									</g>
								</g>
							</g>
						</g>
						<g>
							<g>
								<g>
									<g>
										<g>
											<g>
												<g>
													<g>
														<g>
															<path style="fill:#E8505B;" d="M336.172,454.772l-0.711,18.883c0,0,18.955,7.064,19.164,10.567l-36.663-0.063
																l-0.1-29.468L336.172,454.772z"/>
														</g>
													</g>
												</g>
											</g>
										</g>
									</g>
								</g>
								<g style="opacity:0.6;">
									<g>
										<g>
											<g>
												<g>
													<g>
														<g>
															<g>
																<path style="fill:#FFFFFF;" d="M324.127,472.047c-0.71,0.193-1.202,0.99-1.038,1.707
																	c0.163,0.717,0.97,1.224,1.683,1.044c0.713-0.18,1.333-1.119,1.09-1.813c-0.243-0.695-1.222-1.238-1.871-0.892"/>
															</g>
														</g>
													</g>
												</g>
											</g>
										</g>
									</g>
								</g>
								<g style="opacity:0.6;">
									<g>
										<g>
											<g>
												<g>
													<g>
														<g>
															<path style="fill:#FFFFFF;" d="M317.962,484.159l0.106-2.971l35.112,1.171c0,0,1.631,0.713,1.445,1.862
																L317.962,484.159z"/>
														</g>
													</g>
												</g>
											</g>
										</g>
									</g>
								</g>
								<g>
									<g>
										<g>
											<g>
												<g>
													<g>
														<g>
															<g>
																<path style="fill:#263238;" d="M336.055,473.469c-0.006,0.179-0.901,0.259-1.783,0.833
																	c-0.897,0.551-1.352,1.326-1.517,1.255c-0.165-0.035,0.104-1.105,1.184-1.781
																	C335.013,473.09,336.095,473.305,336.055,473.469z"/>
															</g>
														</g>
													</g>
												</g>
											</g>
										</g>
									</g>
								</g>
								<g>
									<g>
										<g>
											<g>
												<g>
													<g>
														<g>
															<g>
																<path style="fill:#263238;" d="M339.898,475.066c0.041,0.174-0.735,0.477-1.344,1.233
																	c-0.632,0.738-0.787,1.557-0.965,1.549c-0.168,0.028-0.29-1.021,0.485-1.947
																	C338.841,474.969,339.895,474.896,339.898,475.066z"/>
															</g>
														</g>
													</g>
												</g>
											</g>
										</g>
									</g>
								</g>
								<g>
									<g>
										<g>
											<g>
												<g>
													<g>
														<g>
															<g>
																<path style="fill:#263238;" d="M342.074,479.673c-0.163,0.038-0.41-0.857,0.051-1.837
																	c0.454-0.983,1.299-1.368,1.375-1.219c0.101,0.147-0.443,0.673-0.81,1.483
																	C342.305,478.901,342.252,479.655,342.074,479.673z"/>
															</g>
														</g>
													</g>
												</g>
											</g>
										</g>
									</g>
								</g>
								<g>
									<g>
										<g>
											<g>
												<g>
													<g>
														<g>
															<g>
																<path style="fill:#263238;" d="M335.74,469.148c-0.075,0.163-0.896-0.085-1.908-0.018
																	c-1.013,0.047-1.801,0.385-1.894,0.231c-0.103-0.13,0.667-0.791,1.86-0.853
																	C334.989,468.436,335.828,469.007,335.74,469.148z"/>
															</g>
														</g>
													</g>
												</g>
											</g>
										</g>
									</g>
								</g>
							</g>
							<g style="opacity:0.3;">
								<g>
									<g>
										<g>
											<g>
												<g>
													<g>
														<polygon points="336.026,458.511 335.904,461.877 317.885,461.682 317.863,457.797 														"/>
													</g>
												</g>
											</g>
										</g>
									</g>
								</g>
							</g>
							<g>
								<g>
									<g>
										<g>
											<g>
												<g>
													<g>
														<g>
															<path style="fill:#263238;" d="M335.813,465.336c0.002,0.074-0.706,0.183-1.836-0.013
																c-0.563-0.098-1.225-0.283-1.92-0.593c-0.347-0.155-0.702-0.341-1.053-0.561c-0.169-0.109-0.369-0.219-0.554-0.433
																c-0.198-0.187-0.31-0.662-0.081-0.953c0.188-0.281,0.521-0.402,0.785-0.408c0.27-0.008,0.489,0.047,0.688,0.096
																c0.408,0.1,0.791,0.236,1.141,0.394c0.7,0.32,1.268,0.724,1.691,1.114c0.849,0.789,1.138,1.458,1.077,1.493
																c-0.081,0.059-0.494-0.502-1.359-1.154c-0.431-0.324-0.982-0.66-1.636-0.925c-0.328-0.131-0.681-0.244-1.054-0.327
																c-0.388-0.103-0.719-0.106-0.819,0.067c-0.036,0.066-0.041,0.092,0.04,0.206c0.084,0.105,0.241,0.208,0.407,0.316
																c0.324,0.212,0.65,0.396,0.969,0.556c0.639,0.319,1.25,0.536,1.774,0.684
																C335.125,465.188,335.817,465.238,335.813,465.336z"/>
														</g>
													</g>
												</g>
											</g>
										</g>
									</g>
								</g>
							</g>
							<g>
								<g>
									<g>
										<g>
											<g>
												<g>
													<g>
														<g>
															<path style="fill:#263238;" d="M335.579,465.592c-0.063,0.027-0.418-0.615-0.481-1.774
																c-0.03-0.575,0.031-1.272,0.254-2.01c0.113-0.368,0.267-0.745,0.47-1.114c0.216-0.362,0.478-0.846,1.173-0.925
																c0.363-0.013,0.664,0.271,0.766,0.514c0.121,0.248,0.145,0.461,0.187,0.673c0.067,0.428,0.058,0.848-0.001,1.237
																c-0.117,0.78-0.437,1.429-0.788,1.895c-0.718,0.949-1.466,1.162-1.48,1.101c-0.06-0.09,0.565-0.434,1.115-1.347
																c0.271-0.45,0.512-1.043,0.584-1.724c0.037-0.34,0.032-0.7-0.032-1.061c-0.057-0.39-0.202-0.704-0.348-0.665
																c-0.182-0.003-0.493,0.29-0.643,0.6c-0.189,0.328-0.339,0.664-0.457,0.994c-0.231,0.662-0.332,1.296-0.359,1.832
																C335.487,464.894,335.677,465.565,335.579,465.592z"/>
														</g>
													</g>
												</g>
											</g>
										</g>
									</g>
								</g>
							</g>
						</g>
						<g>
							<g>
								<g>
									<g>
										<g>
											<g>
												<g>
													<polygon style="fill:#263238;" points="323.057,297.66 340.408,472.119 317.988,473.171 291.342,330 291.67,472.298 
														267.858,471.985 258.686,295.811 													"/>
												</g>
											</g>
										</g>
									</g>
								</g>
							</g>
						</g>
					</g>
				</g>
				<g>
					<g>
						<g>
							<path style="fill:#455A64;" d="M273.407,310.111c0.05,0.023-0.219,0.774-0.963,1.818c-0.735,1.043-2.009,2.329-3.718,3.3
								c-1.714,0.965-3.473,1.393-4.745,1.486c-1.278,0.099-2.061-0.058-2.054-0.112c0.004-0.088,0.785-0.065,2.01-0.254
								c1.223-0.183,2.888-0.649,4.533-1.574c1.639-0.932,2.896-2.119,3.684-3.073C272.947,310.75,273.329,310.069,273.407,310.111z
								"/>
						</g>
					</g>
				</g>
				<g>
					<g>
						<g>
							<path style="fill:#455A64;" d="M324.94,312.076c0.024,0.049-0.772,0.503-2.19,0.902c-1.411,0.402-3.466,0.672-5.708,0.403
								c-2.241-0.277-4.172-1.032-5.445-1.762c-1.281-0.728-1.944-1.36-1.909-1.402c0.052-0.072,0.788,0.449,2.079,1.075
								c1.287,0.63,3.169,1.302,5.338,1.571c2.17,0.26,4.158,0.059,5.559-0.244C324.068,312.322,324.907,311.993,324.94,312.076z"/>
						</g>
					</g>
				</g>
				<g>
					<g>
						<g>
							<path style="fill:#455A64;" d="M295.335,325.32c0.022,0.008-0.095,0.287-0.559,0.492c-0.452,0.191-1.253,0.207-2.001-0.311
								c-0.755-0.532-1.189-1.549-1.462-2.613c-0.274-1.085-0.567-2.245-0.874-3.462c-0.605-2.458-1.123-4.691-1.474-6.313
								c-0.35-1.622-0.532-2.634-0.462-2.651c0.07-0.017,0.378,0.964,0.82,2.563c0.442,1.6,1.017,3.818,1.622,6.276
								c0.293,1.219,0.572,2.38,0.833,3.466c0.241,1.047,0.612,1.96,1.218,2.438c0.607,0.476,1.306,0.527,1.715,0.414
								C295.132,325.501,295.302,325.286,295.335,325.32z"/>
						</g>
					</g>
				</g>
				<g>
					<g>
						<g>
							<path style="fill:#455A64;" d="M292.88,310.443c-0.006-0.027,0.109-0.099,0.346-0.102c0.234-0.005,0.585,0.092,0.912,0.371
								c0.312,0.275,0.632,0.754,0.578,1.375c-0.042,0.633-0.615,1.186-1.271,1.321c-0.651,0.158-1.406-0.098-1.714-0.652
								c-0.313-0.539-0.229-1.108-0.064-1.49c0.177-0.392,0.453-0.63,0.666-0.725c0.215-0.099,0.35-0.083,0.356-0.056
								c0.038,0.075-0.47,0.229-0.678,0.91c-0.096,0.322-0.104,0.764,0.125,1.104c0.216,0.346,0.707,0.509,1.195,0.4
								c0.487-0.11,0.862-0.468,0.909-0.872c0.062-0.406-0.134-0.802-0.358-1.052C293.403,310.449,292.878,310.527,292.88,310.443z"
								/>
						</g>
					</g>
				</g>
				<g>
					<g>
						<g>
							<path style="fill:#455A64;" d="M291.017,466.65c-0.004,0.076-1.304,0.062-3.403,0.045c-2.099-0.018-4.996-0.022-8.195,0.061
								c-3.199,0.086-6.093,0.245-8.188,0.374c-2.095,0.128-3.392,0.211-3.4,0.136c-0.004-0.036,0.316-0.103,0.897-0.193
								c0.581-0.092,1.426-0.199,2.472-0.31c2.092-0.223,4.993-0.441,8.204-0.527c3.21-0.084,6.118-0.021,8.219,0.091
								c1.051,0.055,1.9,0.117,2.485,0.178C290.696,466.565,291.019,466.615,291.017,466.65z"/>
						</g>
					</g>
				</g>
				<g>
					<g>
						<g>
							<path style="fill:#455A64;" d="M339.245,464.503c0.017,0.143-4.905,0.86-10.993,1.601c-6.09,0.742-11.04,1.227-11.057,1.085
								c-0.017-0.143,4.904-0.86,10.994-1.601C334.277,464.846,339.227,464.36,339.245,464.503z"/>
						</g>
					</g>
				</g>
				<g>
					<g>
						<g>
							<path style="fill:#455A64;" d="M325.098,395.275c0.123,0.074-1.968,3.766-4.67,8.245c-2.703,4.48-4.993,8.051-5.116,7.976
								c-0.123-0.074,1.967-3.765,4.671-8.245C322.684,398.772,324.975,395.201,325.098,395.275z"/>
						</g>
					</g>
				</g>
				<g>
					<g>
						<g>
							<path style="fill:#455A64;" d="M283.018,398.234c0.131,0.06-1.315,3.514-3.23,7.715c-1.915,4.202-3.573,7.559-3.704,7.5
								c-0.131-0.06,1.315-3.513,3.23-7.716C281.229,401.532,282.887,398.174,283.018,398.234z"/>
						</g>
					</g>
				</g>
				<g>
					<g>
						<g>
							<path style="fill:#455A64;" d="M285.062,413.308c-0.063,0.041-0.698-0.824-1.723-2.217c-1.026-1.394-2.456-3.307-4.102-5.367
								c-1.649-2.059-3.202-3.874-4.337-5.181c-1.134-1.307-1.839-2.115-1.785-2.168c0.049-0.047,0.848,0.671,2.057,1.919
								c1.208,1.247,2.814,3.034,4.472,5.104c1.655,2.071,3.046,4.029,3.998,5.482C284.593,412.332,285.119,413.271,285.062,413.308
								z"/>
						</g>
					</g>
				</g>
			</g>
			<g>
				<g>
					<g>
						<path style="fill:#E8505B;" d="M262.414,206.534c0,0-11.867,6.415-14.273,7.811c-2.607,1.512-10.339,16.774-9.476,24.541
							c0.863,7.766,1.479,6.41,0.863,7.766c-0.616,1.356-2.72,10.725-0.929,14.547c1.791,3.822,8.572,11.465,12.517,12.204
							c3.945,0.74,24.162-27.318,26.504-32.952c2.342-5.634,1.109-11.798,1.109-11.798l-10.316-4.597l0,0L262.414,206.534z"/>
					</g>
				</g>
				<g>
					<g>
						<path style="fill:#E8505B;" d="M253.202,262.421c0,0.936,0,29.024,0,33.471c0,4.447,5.272,12.405,5.272,12.405h32.412h32.535
							c0,0,2.809-14.044,2.341-20.364c-0.468-6.32-5.384-65.538-5.384-65.538l-1.638-16.384l-17.321-4.213l-0.906-3.685
							l-26.301-3.131l-1.397,6.085l-11.213,5.907C261.602,207.91,253.202,262.421,253.202,262.421z"/>
					</g>
				</g>
				<g>
					<g>
						<path style="fill:none;" d="M259.193,234.877"/>
					</g>
				</g>
				<g>
					<g>
						<path style="fill:#E8505B;" d="M318.74,206.012c0,0,5.933,3.102,9.289,9.143c3.356,6.041,14.096,40.051,14.544,44.303
							c0.448,4.251,0.671,10.069,0,10.516c-0.671,0.448,2.014,16.11,2.909,20.361c0.895,4.251,2.879,15.335,2.208,20.705
							c-0.671,5.37-0.641,8.382-0.641,8.382l-14.768-4.475l0.509-5.171c0,0-2.941-8.985-4.984-15.414
							c-2.044-6.429-10.293-66.678-10.293-66.678L318.74,206.012z"/>
					</g>
				</g>
				<g>
					<g>
						<g>
							<path style="fill:#263238;" d="M324.508,302.158c0.001,0.018-0.242,0.046-0.706,0.082c-0.516,0.034-1.19,0.078-2.03,0.132
								c-1.763,0.107-4.317,0.224-7.474,0.337c-6.313,0.229-15.041,0.387-24.68,0.304c-9.642-0.086-18.366-0.379-24.676-0.666
								c-3.155-0.143-5.707-0.279-7.47-0.392c-0.839-0.058-1.513-0.105-2.029-0.141c-0.464-0.038-0.707-0.067-0.706-0.085
								c0.001-0.018,0.246-0.024,0.711-0.02c0.517,0.011,1.192,0.026,2.033,0.044c1.825,0.055,4.363,0.133,7.475,0.227
								c6.311,0.193,15.031,0.427,24.667,0.513c9.632,0.082,18.353-0.018,24.665-0.152c3.112-0.072,5.651-0.13,7.476-0.172
								c0.841-0.014,1.517-0.026,2.034-0.035C324.262,302.133,324.507,302.14,324.508,302.158z"/>
						</g>
					</g>
				</g>
				<g>
					<g>
						<g>
							<path style="fill:#263238;" d="M279.055,228.831c0.017-0.006,0.086,0.172,0.203,0.517c0.101,0.349,0.314,0.849,0.452,1.529
								c0.35,1.34,0.646,3.352,0.528,5.839c-0.102,2.488-0.774,5.417-2.007,8.46c-1.254,3.039-3.082,6.176-5.323,9.22
								c-4.502,6.109-9.763,10.593-13.619,13.655c-1.94,1.531-3.551,2.713-4.676,3.514c-0.528,0.366-0.959,0.666-1.306,0.907
								c-0.302,0.202-0.466,0.301-0.477,0.287c-0.011-0.014,0.132-0.142,0.415-0.371c0.331-0.261,0.743-0.587,1.247-0.985
								c1.087-0.849,2.661-2.075,4.566-3.638c3.787-3.127,8.974-7.629,13.43-13.676c2.221-3.017,4.039-6.111,5.299-9.096
								c1.238-2.99,1.936-5.856,2.083-8.3c0.162-2.442-0.072-4.432-0.359-5.773C279.232,229.578,279.006,228.846,279.055,228.831z"
								/>
						</g>
					</g>
				</g>
				<g>
					<g>
						<g>
							<path style="fill:#263238;" d="M268.194,223.083c0.023,0.03-0.307,0.325-0.909,0.845c-0.59,0.534-1.442,1.307-2.433,2.326
								c-2.012,2.012-4.457,5.101-7.5,8.248c-3.042,3.168-6.408,5.383-8.964,6.669c-1.278,0.652-2.353,1.093-3.104,1.368
								c-0.751,0.277-1.181,0.39-1.192,0.36c-0.034-0.086,1.633-0.687,4.123-2.054c2.488-1.359,5.76-3.58,8.765-6.709
								c3.011-3.113,5.517-6.183,7.612-8.145c1.033-0.994,1.93-1.732,2.564-2.221C267.802,223.296,268.173,223.055,268.194,223.083z
								"/>
						</g>
					</g>
				</g>
				<g>
					<g>
						<g>
							<path style="fill:#263238;" d="M290.291,196.896c0.009-0.001,0.024,0.09,0.045,0.27c0.021,0.211,0.048,0.475,0.081,0.802
								c0.054,0.744,0.128,1.775,0.222,3.082c0.174,2.678,0.404,6.554,0.654,11.346c0.5,9.583,1.118,22.825,1.591,37.459
								c0.474,14.639,0.701,27.897,0.636,37.496c0.002,2.399-0.045,4.57-0.09,6.476c-0.04,1.906-0.074,3.547-0.154,4.888
								c-0.069,1.309-0.124,2.341-0.163,3.086c-0.023,0.327-0.041,0.591-0.056,0.802c-0.015,0.18-0.028,0.273-0.037,0.272
								c-0.009-0.001-0.014-0.094-0.016-0.275c0.001-0.211,0.002-0.476,0.004-0.804c0.016-0.745,0.038-1.778,0.065-3.088
								c0.048-1.34,0.053-2.981,0.065-4.886c0.017-1.905,0.039-4.074,0.013-6.472c-0.029-9.592-0.314-22.844-0.788-37.478
								c-0.472-14.63-1.032-27.872-1.438-37.458c-0.205-4.763-0.371-8.631-0.488-11.352c-0.053-1.31-0.094-2.342-0.124-3.087
								c-0.012-0.327-0.021-0.591-0.029-0.801C290.28,196.991,290.282,196.897,290.291,196.896z"/>
						</g>
					</g>
				</g>
				<g>
					<g>
						<g>
							<path style="fill:#263238;" d="M276.691,272.206c0.043,0.045-0.765,0.92-2.219,2.18c-1.452,1.26-3.576,2.875-6.098,4.383
								c-2.526,1.505-4.956,2.607-6.754,3.287c-1.799,0.682-2.952,0.978-2.972,0.918c-0.026-0.077,1.083-0.495,2.832-1.259
								c1.75-0.762,4.127-1.905,6.626-3.393c2.496-1.493,4.63-3.042,6.131-4.221C275.741,272.924,276.636,272.147,276.691,272.206z"
								/>
						</g>
					</g>
				</g>
				<g>
					<g>
						<g>
							<path style="fill:#263238;" d="M322.21,281.476c-0.039,0.057-0.813-0.389-2.003-1.202c-1.19-0.812-2.789-2.003-4.471-3.421
								c-1.681-1.42-3.124-2.796-4.125-3.833c-1.002-1.036-1.571-1.724-1.521-1.772c0.054-0.052,0.715,0.543,1.777,1.508
								c1.062,0.964,2.534,2.288,4.205,3.699c1.671,1.409,3.224,2.637,4.353,3.522C321.554,280.862,322.253,281.414,322.21,281.476z
								"/>
						</g>
					</g>
				</g>
				<g>
					<g>
						<g>
							<path style="fill:#263238;" d="M322.831,252.639c0.018-0.003,0.063,0.164,0.134,0.486c0.076,0.382,0.17,0.848,0.283,1.413
								c0.24,1.228,0.538,3.014,0.852,5.229c0.639,4.428,1.257,10.592,1.415,17.421c0.177,6.831-0.092,13.013-0.351,17.476
								c-0.14,2.232-0.27,4.036-0.386,5.282c-0.057,0.573-0.103,1.046-0.141,1.433c-0.038,0.327-0.067,0.498-0.085,0.497
								c-0.018-0.001-0.024-0.175-0.02-0.504c0.012-0.389,0.026-0.864,0.044-1.439c0.055-1.328,0.13-3.115,0.221-5.287
								c0.165-4.463,0.375-10.634,0.198-17.444c-0.158-6.809-0.715-12.955-1.26-17.386c-0.267-2.216-0.509-4.008-0.687-5.244
								c-0.074-0.57-0.136-1.042-0.186-1.427C322.824,252.816,322.814,252.642,322.831,252.639z"/>
						</g>
					</g>
				</g>
				<g>
					<g>
						<g>
							<path style="fill:#263238;" d="M275.117,232.259c-0.128-0.075,0.312-1.046,0.779-2.262c0.473-1.214,0.802-2.229,0.947-2.198
								c0.137,0.026,0.029,1.126-0.461,2.386C275.897,231.446,275.236,232.332,275.117,232.259z"/>
						</g>
					</g>
				</g>
				<g>
					<g>
						<g>
							<path style="fill:#263238;" d="M269.671,229.572c-0.12-0.079,0.344-0.991,1.035-2.036c0.692-1.045,1.35-1.828,1.47-1.749
								c0.12,0.079-0.344,0.991-1.036,2.036C270.449,228.868,269.791,229.651,269.671,229.572z"/>
						</g>
					</g>
				</g>
				<g>
					<g>
						<g>
							<path style="fill:#263238;" d="M265.943,226.922c-0.095-0.104,0.595-0.885,1.621-1.644c1.025-0.761,1.973-1.194,2.045-1.072
								c0.075,0.125-0.733,0.747-1.735,1.491C266.871,226.438,266.041,227.03,265.943,226.922z"/>
						</g>
					</g>
				</g>
				<g>
					<g>
						<g>
							<path style="fill:#263238;" d="M254.499,236.817c-0.057,0.184-2.793-1.091-6.389-1.148c-3.598-0.04-6.367,1.161-6.419,0.976
								c-0.023-0.058,0.634-0.409,1.778-0.785c1.141-0.372,2.794-0.733,4.648-0.711c1.853,0.028,3.496,0.433,4.626,0.836
								C253.876,236.391,254.524,236.76,254.499,236.817z"/>
						</g>
					</g>
				</g>
				<g>
					<g>
						<g>
							<path style="fill:#263238;" d="M263.124,224.455c-0.086,0.038-0.487-0.89-1.397-2.215c-0.903-1.325-2.398-3.001-4.424-4.378
								c-2.033-1.368-4.145-2.131-5.711-2.476c-1.569-0.352-2.579-0.378-2.576-0.472c0-0.036,0.252-0.056,0.712-0.062
								c0.459-0.015,1.124,0.039,1.936,0.172c1.622,0.259,3.832,0.993,5.931,2.406c2.092,1.421,3.596,3.199,4.441,4.608
								c0.426,0.703,0.724,1.301,0.881,1.733C263.082,224.2,263.157,224.441,263.124,224.455z"/>
						</g>
					</g>
				</g>
				<g style="opacity:0.3;">
					<g>
						<g>
							<path d="M252.561,272.398c6.313,1.427,13.057-1.366,17.614-5.961c4.557-4.596,7.206-10.759,8.949-16.992
								c0.817-2.922,1.773-5.552,0.176-8.132c-1.18,3.653-2.684,6.518-4.516,9.892c-1.39,2.56-3.828,5.417-5.687,7.576
								C264.3,264.352,258.89,268.338,252.561,272.398"/>
						</g>
					</g>
				</g>
				<g style="opacity:0.3;">
					<g>
						<g>
							<path d="M264.941,295.042c2.72,0.437,5.57,0.592,8.174-0.306c2.604-0.898,4.92-3.039,5.364-5.758
								c0.647,2.492-0.511,5.258-2.546,6.836c-2.034,1.578-4.795,2.044-7.33,1.592c-1.581-0.282-3.223-1.006-3.961-2.433"/>
						</g>
					</g>
				</g>
				<g style="opacity:0.3;">
					<g>
						<g>
							<path d="M259.637,301.876c5.893,2.547,13.033,3.449,19.428,4.009c6.631,0.581,13.287,1.162,19.936,0.839
								c6.649-0.324,13.335-1.584,19.309-4.52c0,0-23.833,0.668-31.13,0.384C279.884,302.303,259.637,301.876,259.637,301.876z"/>
						</g>
					</g>
				</g>
				<g>
					<g>
						<g>
							<path style="fill:#263238;" d="M336.423,311.756c0.143,0.014,0.211,0.978,0.152,2.153c-0.059,1.175-0.224,2.127-0.368,2.127
								c-0.144,0-0.212-0.964-0.152-2.153C336.115,312.693,336.28,311.741,336.423,311.756z"/>
						</g>
					</g>
				</g>
				<g>
					<g>
						<g>
							<path style="fill:#263238;" d="M342.334,312.966c0.14-0.014,0.359,1.067,0.324,2.417c-0.031,1.35-0.303,2.419-0.442,2.398
								c-0.146-0.02-0.109-1.095-0.079-2.411C342.172,314.054,342.188,312.979,342.334,312.966z"/>
						</g>
					</g>
				</g>
				<g>
					<g>
						<g>
							<path style="fill:#263238;" d="M290.213,196.711c0.065-0.043,0.48,0.987,1.938,1.833c0.706,0.437,1.64,0.804,2.654,1.333
								c0.253,0.135,0.508,0.282,0.762,0.451c0.254,0.175,0.532,0.381,0.712,0.729c0.194,0.352,0.119,0.831-0.077,1.131
								c-0.191,0.317-0.423,0.547-0.662,0.786c-0.245,0.235-0.517,0.458-0.852,0.606c-0.329,0.153-0.76,0.186-1.11,0.025
								c-0.697-0.361-0.922-0.963-1.241-1.416c-0.595-0.969-1.04-1.893-1.364-2.685c-0.644-1.592-0.825-2.642-0.767-2.656
								c0.08-0.024,0.386,0.984,1.104,2.508c0.362,0.76,0.831,1.646,1.434,2.578c0.309,0.449,0.607,1.014,1.039,1.204
								c0.428,0.2,0.965-0.109,1.397-0.539c0.45-0.431,0.867-0.925,0.643-1.318c-0.213-0.412-0.789-0.708-1.246-0.983
								c-0.963-0.533-1.906-0.945-2.623-1.444C290.464,197.876,290.136,196.704,290.213,196.711z"/>
						</g>
					</g>
				</g>
				<g style="opacity:0.3;">
					<g>
						<g>
							<path d="M254.515,236.531c-1.198,1.27-2.901,1.923-4.575,2.419c-1.674,0.496-3.409,0.886-4.91,1.777
								c-0.237,0.141-0.475,0.302-0.617,0.538c-0.142,0.237-0.161,0.568,0.026,0.772c0.242,0.264,0.669,0.193,1.012,0.091
								C248.961,241.088,252.169,239.343,254.515,236.531"/>
						</g>
					</g>
				</g>
			</g>
			<g>
				<g>
					<g>
						<g>
							<path style="fill:#263238;" d="M289.522,216.984l-18.632-8.833c-1.336-0.854-1.383-3.237-0.661-4.854
								c0.429-0.96,1.556-1.397,2.555-1.071l20.315,7.181L289.522,216.984z"/>
						</g>
					</g>
				</g>
				<g>
					<g>
						<g>
							<path style="fill:#455A64;" d="M296.341,215.467c-1.411,3.962-1.047,7.712,0.815,8.375c1.861,0.663,4.515-2.012,5.926-5.974
								c1.412-3.962,1.047-7.712-0.815-8.375C300.406,208.83,297.753,211.505,296.341,215.467z"/>
						</g>
					</g>
				</g>
				<g>
					<g>
						<g>
							<path style="fill:#263238;" d="M289.522,216.984l6.895,6.447c-2.248-6.447,1.614-12.204,5.05-14.028l-8.452-0.026
								L289.522,216.984z"/>
						</g>
					</g>
				</g>
				<g>
					<g>
						<g>
							<g>
								<polygon style="fill:#E8505B;" points="300.401,210.089 295.976,221.814 453.614,401.99 540.488,274.098 								"/>
							</g>
						</g>
					</g>
					<g style="opacity:0.8;">
						<g>
							<g>
								<polygon style="fill:#FFFFFF;" points="300.401,210.089 295.976,221.814 453.614,401.99 540.488,274.098 								"/>
							</g>
						</g>
					</g>
				</g>
				<g>
					<g>
						<g>
							<g>
								<path style="fill:#E8505B;" d="M456.205,298.272c0,1.645-1.334,2.979-2.979,2.979c-1.645,0-2.979-1.334-2.979-2.979
									c0-1.645,1.334-2.979,2.979-2.979C454.871,295.293,456.205,296.627,456.205,298.272z"/>
							</g>
						</g>
					</g>
					<g style="opacity:0.6;">
						<g>
							<g>
								<path style="fill:#FFFFFF;" d="M456.205,298.272c0,1.645-1.334,2.979-2.979,2.979c-1.645,0-2.979-1.334-2.979-2.979
									c0-1.645,1.334-2.979,2.979-2.979C454.871,295.293,456.205,296.627,456.205,298.272z"/>
							</g>
						</g>
					</g>
				</g>
				<g>
					<g>
						<g>
							<g>
								<path style="fill:#E8505B;" d="M394.165,260.476c0,0.823-0.667,1.49-1.49,1.49c-0.823,0-1.49-0.667-1.49-1.49
									c0-0.823,0.667-1.49,1.49-1.49C393.498,258.986,394.165,259.653,394.165,260.476z"/>
							</g>
						</g>
					</g>
					<g style="opacity:0.6;">
						<g>
							<g>
								<path style="fill:#FFFFFF;" d="M394.165,260.476c0,0.823-0.667,1.49-1.49,1.49c-0.823,0-1.49-0.667-1.49-1.49
									c0-0.823,0.667-1.49,1.49-1.49C393.498,258.986,394.165,259.653,394.165,260.476z"/>
							</g>
						</g>
					</g>
				</g>
				<g>
					<g>
						<g>
							<g>
								<path style="fill:#E8505B;" d="M411.09,296.783c0,0.823-0.667,1.489-1.49,1.489c-0.823,0-1.49-0.667-1.49-1.489
									c0-0.823,0.667-1.49,1.49-1.49C410.423,295.293,411.09,295.96,411.09,296.783z"/>
							</g>
						</g>
					</g>
					<g style="opacity:0.6;">
						<g>
							<g>
								<path style="fill:#FFFFFF;" d="M411.09,296.783c0,0.823-0.667,1.489-1.49,1.489c-0.823,0-1.49-0.667-1.49-1.489
									c0-0.823,0.667-1.49,1.49-1.49C410.423,295.293,411.09,295.96,411.09,296.783z"/>
							</g>
						</g>
					</g>
				</g>
				<g>
					<g>
						<g>
							<g>
								<circle style="fill:#E8505B;" cx="459.93" cy="277.198" r="1.49"/>
							</g>
						</g>
					</g>
					<g style="opacity:0.6;">
						<g>
							<g>
								<circle style="fill:#FFFFFF;" cx="459.93" cy="277.198" r="1.49"/>
							</g>
						</g>
					</g>
				</g>
				<g>
					<g>
						<g>
							<g>
								<path style="fill:#E8505B;" d="M334.934,227.931c0,0.823-0.667,1.49-1.49,1.49s-1.49-0.667-1.49-1.49
									c0-0.823,0.667-1.49,1.49-1.49S334.934,227.109,334.934,227.931z"/>
							</g>
						</g>
					</g>
					<g style="opacity:0.6;">
						<g>
							<g>
								<path style="fill:#FFFFFF;" d="M334.934,227.931c0,0.823-0.667,1.49-1.49,1.49s-1.49-0.667-1.49-1.49
									c0-0.823,0.667-1.49,1.49-1.49S334.934,227.109,334.934,227.931z"/>
							</g>
						</g>
					</g>
				</g>
				<g>
					<g>
						<g>
							<g>
								
									<ellipse transform="matrix(0.5665 -0.824 0.824 0.5665 -63.2587 557.618)" style="fill:#E8505B;" cx="498.404" cy="338.938" rx="77.429" ry="23.74"/>
							</g>
						</g>
					</g>
					<g style="opacity:0.7;">
						<g>
							<g>
								
									<ellipse transform="matrix(0.5665 -0.824 0.824 0.5665 -63.2587 557.618)" style="fill:#FFFFFF;" cx="498.404" cy="338.938" rx="77.429" ry="23.74"/>
							</g>
						</g>
					</g>
				</g>
				<g>
					<g>
						<g>
							<path style="fill:#FAFAFA;" d="M295.976,221.814c0,0,5.372-2.49,4.424-11.725
								C300.401,210.089,294.856,213.448,295.976,221.814z"/>
						</g>
					</g>
				</g>
				<g>
					<g>
						<g>
							<g>
								<polygon style="fill:#FFFFFF;" points="307.201,213.835 306.454,226.835 305.849,213.835 294.525,213.239 305.828,212.639 
									306.505,199.834 307.051,212.646 321.556,213.292 								"/>
							</g>
						</g>
					</g>
					<g>
						<g>
							<g>
								<polygon style="fill:#FFFFFF;" points="305.45,213.031 302.517,208.314 306.173,212.521 								"/>
							</g>
						</g>
					</g>
					<g>
						<g>
							<g>
								<polygon style="fill:#FFFFFF;" points="306.497,212.703 310.433,208.835 307.123,213.335 								"/>
							</g>
						</g>
					</g>
					<g>
						<g>
							<g>
								<polygon style="fill:#FFFFFF;" points="307.198,213.638 310.132,218.355 306.475,214.148 								"/>
							</g>
						</g>
					</g>
					<g>
						<g>
							<g>
								<polygon style="fill:#FFFFFF;" points="306.151,213.967 302.215,217.835 305.526,213.335 								"/>
							</g>
						</g>
					</g>
				</g>
			</g>
			<g>
				<g>
					<g>
						<g>
							<g>
								<path style="fill:#FFBE9D;" d="M290.182,205.761c-0.976-0.759-3.511-0.801-3.511-0.801s0.835-0.57-0.984-2.039
									c-0.623-0.503-4.411,0.061-4.411,0.061s0-1.438-1.362-1.777c-0.528-0.131-1.375-0.248-2.348,0.037
									c-1.265,0.37-2.584,0.774-2.643,2.091l-0.482,2.646c-0.017-0.003-0.037-0.01-0.05-0.01
									c-0.233-0.014-2.171-0.216-2.274-0.079c-0.102,0.136-0.469,2.101-0.594,3.056c-0.093,0.714,0.732,3.387,1.5,4.827
									l-0.228,3.502l-4.695,5.963l10.821,5.268c0,0,2.032-3.417,3.228-5.075c1.25-1.733,4.031-2.918,4.513-4.244
									c0.633-1.743,1.852-5.318,2.318-8.069c0.338-1.997,2.046-2.495,2.046-2.495S291.158,206.52,290.182,205.761z"/>
							</g>
						</g>
					</g>
					<g>
						<g>
							<g>
								<g>
									<path style="fill:#EB996E;" d="M274.681,204.662c0.154-0.005,0.168,1.772-0.192,3.882
										c-0.361,2.111-0.525,3.806-0.631,3.814c-0.154,0.008-0.194-1.771,0.168-3.884
										C274.385,206.363,274.575,204.669,274.681,204.662z"/>
								</g>
							</g>
						</g>
					</g>
					<g>
						<g>
							<g>
								<g>
									<path style="fill:#EB996E;" d="M277.971,207.831c-0.062-0.03,0.061-0.387,0.09-0.989c0.06-0.592-0.069-1.475,0.27-2.454
										c0.169-0.479,0.501-0.916,0.915-1.135c0.409-0.222,0.802-0.271,1.112-0.31c0.624-0.054,0.989-0.1,1.012-0.042
										c0.025,0.064-0.35,0.232-0.953,0.368c-0.295,0.077-0.646,0.163-0.952,0.355c-0.306,0.188-0.547,0.516-0.695,0.926
										c-0.296,0.825-0.238,1.708-0.381,2.334C278.27,207.521,278.023,207.862,277.971,207.831z"/>
								</g>
							</g>
						</g>
					</g>
					<g>
						<g>
							<g>
								<g>
									<path style="fill:#EB996E;" d="M287.085,204.65c-0.006,0.064-0.41,0.118-1.051,0.154c-0.321,0.018-0.702,0.031-1.124,0.038
										c-0.432-0.01-0.851,0.042-1.283,0.202c-0.424,0.159-0.772,0.419-0.986,0.728c-0.213,0.305-0.291,0.668-0.356,0.976
										c-0.108,0.629-0.243,1.033-0.311,1.011c-0.056-0.019-0.043-0.4-0.017-1.055c0.026-0.324,0.068-0.748,0.322-1.167
										c0.25-0.41,0.684-0.745,1.181-0.931c0.492-0.189,1.026-0.231,1.444-0.196c0.431,0.016,0.819,0.038,1.143,0.062
										C286.696,204.523,287.091,204.586,287.085,204.65z"/>
								</g>
							</g>
						</g>
					</g>
					<g>
						<g>
							<g>
								<g>
									<path style="fill:#EB996E;" d="M290.291,206.081c-0.003,0.07-0.45,0.079-1.147,0.127c-0.68,0.052-1.684,0.174-2.372,0.909
										c-0.691,0.737-0.837,1.728-0.921,2.409c-0.076,0.696-0.113,1.141-0.182,1.14c-0.06,0-0.141-0.435-0.149-1.16
										c0.003-0.698,0.089-1.822,0.911-2.711c0.404-0.435,0.937-0.691,1.418-0.807c0.486-0.118,0.927-0.127,1.289-0.112
										C289.864,205.915,290.294,206.023,290.291,206.081z"/>
								</g>
							</g>
						</g>
					</g>
				</g>
			</g>
			<g>
				<g>
					<g>
						<path style="fill:#FFBE9D;" d="M333.022,315.173l-2.845,6.623v8.671c0,0,1.584,4.889,2.591,4.797
							c1.007-0.092,2.944-0.83,2.667-2.029l2.214,1.199l2.398-0.185c0,0,6.283-6.088,6.601-7.38c0.318-1.291,0.41-3.369,0.41-3.369
							l-1.883-4.644L333.022,315.173z"/>
					</g>
				</g>
				<g>
					<g>
						<g>
							<path style="fill:#EB996E;" d="M334.898,325.566c0.072,0.014,0.027,0.489-0.159,1.211c-0.188,0.722-0.425,1.686-0.333,2.78
								c0.149,2.22,1.406,3.675,1.276,3.757c-0.044,0.042-0.431-0.247-0.853-0.89c-0.425-0.633-0.859-1.645-0.943-2.828
								c-0.102-1.185,0.225-2.249,0.501-2.929C334.664,325.975,334.829,325.553,334.898,325.566z"/>
						</g>
					</g>
				</g>
				<g>
					<g>
						<g>
							<path style="fill:#EB996E;" d="M337.674,330.901c-0.07,0.017-0.248-0.385-0.479-1.046c-0.115-0.33-0.244-0.725-0.378-1.166
								c-0.14-0.437-0.25-0.953-0.488-1.353c-0.231-0.416-0.599-0.559-0.946-0.409c-0.352,0.144-0.576,0.451-0.693,0.749
								c-0.225,0.611-0.26,1.073-0.348,1.059c-0.052-0.007-0.162-0.435-0.002-1.175c0.087-0.36,0.34-0.832,0.85-1.073
								c0.248-0.122,0.59-0.166,0.897-0.045c0.31,0.117,0.54,0.37,0.69,0.628c0.304,0.53,0.381,1.035,0.501,1.483
								c0.111,0.453,0.203,0.862,0.274,1.207C337.692,330.451,337.744,330.885,337.674,330.901z"/>
						</g>
					</g>
				</g>
				<g>
					<g>
						<g>
							<path style="fill:#EB996E;" d="M343.015,326.436c0.134-0.03,0.468,1.103,0.365,2.536c-0.096,1.435-0.584,2.51-0.712,2.462
								c-0.143-0.046,0.104-1.138,0.193-2.498C342.96,327.578,342.867,326.462,343.015,326.436z"/>
						</g>
					</g>
				</g>
				<g>
					<g>
						<g>
							<path style="fill:#EB996E;" d="M337.244,324.836c0.141-0.012,0.354,1.134,0.377,2.563c0.025,1.43-0.15,2.582-0.292,2.574
								c-0.146-0.007-0.204-1.155-0.229-2.566C337.078,325.998,337.099,324.848,337.244,324.836z"/>
						</g>
					</g>
				</g>
				<g>
					<g>
						<g>
							<path style="fill:#EB996E;" d="M345.602,328.424c-0.119-0.056-0.016-0.751,0.005-1.654c0.043-0.9,0.032-1.623,0.166-1.655
								c0.146-0.037,0.401,0.726,0.354,1.676C346.108,327.742,345.747,328.492,345.602,328.424z"/>
						</g>
					</g>
				</g>
			</g>
		</g>
		<g>
			<g>
				<g>
					<path style="fill:#EB996E;" d="M297.37,182.359c-0.52-0.203-1.142,0.111-1.406,0.603c-0.264,0.491-0.224,1.1-0.031,1.623
						c0.081,0.22,0.213,0.453,0.439,0.516c0.155,0.043,0.36,0.068,0.494-0.022c0.133-0.09,0.312-0.197,0.411-0.324
						c0.267-0.342,0.429-0.804,0.537-1.224C297.926,183.092,297.795,182.45,297.37,182.359"/>
				</g>
			</g>
			<g>
				<g>
					<g>
						<path style="fill:#263238;" d="M296.781,185.28c0.032,0.059-0.001,0.173-0.169,0.249c-0.164,0.075-0.448,0.079-0.724-0.098
							c-0.291-0.186-0.475-0.533-0.555-0.871c-0.076-0.332-0.117-0.672-0.061-1.086c0.081-0.837,0.828-1.545,1.471-1.505
							c0.628,0.016,0.83,0.428,0.725,0.513c-0.092,0.11-0.349,0.071-0.61,0.215c-0.244,0.124-0.485,0.432-0.555,0.929
							c-0.036,0.243-0.034,0.54-0.023,0.773c0.01,0.226,0.049,0.378,0.092,0.476C296.482,185.111,296.702,185.165,296.781,185.28z"
							/>
					</g>
				</g>
			</g>
		</g>
	</g>
</g>
<g id="Speech_Bubble">
	<g>
		<g>
			<g>
				<g>
					<g>
						<path style="fill:#FFFFFF;" d="M324.338,193.637l5.402-9.52c-2.39-3.879-3.771-8.446-3.771-13.336
							c0-14.064,11.401-25.465,25.465-25.465c14.064,0,25.465,11.401,25.465,25.465c0,14.064-11.401,25.465-25.465,25.465
							c-5.872,0-11.276-1.993-15.584-5.333l0.009,0.011L324.338,193.637z"/>
					</g>
				</g>
				<g>
					<g>
						<g>
							<path style="fill:#263238;" d="M324.338,193.637c0.881-0.218,4.327-1.069,11.491-2.839l-0.073,0.205l-0.009-0.011
								c-0.044-0.057-0.034-0.138,0.023-0.182c0.048-0.037,0.114-0.035,0.159,0.001c2.876,2.211,6.992,4.355,12.135,5.026
								c1.279,0.157,2.615,0.256,3.987,0.183c0.685-0.042,1.383-0.061,2.086-0.123c0.698-0.108,1.406-0.218,2.124-0.329
								c2.845-0.573,5.75-1.663,8.457-3.353c5.411-3.33,10.01-9.239,11.435-16.462c0.7-3.588,0.637-7.434-0.307-11.152
								c-0.951-3.705-2.722-7.326-5.374-10.304c-2.684-3.043-5.999-5.481-9.654-6.897c-3.639-1.447-7.521-2.002-11.235-1.738
								c-3.715,0.262-7.271,1.321-10.325,3.032c-3.064,1.697-5.652,3.966-7.653,6.504c-2.007,2.539-3.427,5.342-4.312,8.136
								c-0.879,2.807-1.125,5.596-1.13,8.181c0.12,5.207,1.836,9.5,3.684,12.538c0.025,0.039,0.023,0.089,0.002,0.127
								C326.405,190.089,324.774,192.889,324.338,193.637c0.419-0.758,1.986-3.595,5.294-9.582l0.002,0.127
								c-1.901-3.046-3.676-7.379-3.832-12.659c-0.013-2.621,0.222-5.454,1.101-8.311c0.885-2.844,2.316-5.701,4.35-8.292
								c2.027-2.59,4.655-4.909,7.773-6.646c3.108-1.751,6.732-2.84,10.519-3.114c3.786-0.276,7.749,0.284,11.464,1.759
								c3.732,1.443,7.117,3.929,9.855,7.035c2.706,3.04,4.514,6.736,5.481,10.519c0.96,3.796,1.019,7.718,0.299,11.377
								c-1.466,7.367-6.172,13.377-11.691,16.745c-2.761,1.711-5.721,2.807-8.615,3.375c-0.73,0.109-1.449,0.218-2.159,0.324
								c-0.715,0.059-1.423,0.075-2.119,0.114c-1.393,0.066-2.748-0.042-4.045-0.209c-5.214-0.713-9.365-2.92-12.245-5.184
								l0.182-0.182l0.009,0.011c0.044,0.056,0.034,0.137-0.022,0.181c-0.015,0.012-0.034,0.02-0.051,0.024
								C328.687,192.663,325.223,193.439,324.338,193.637z"/>
						</g>
					</g>
				</g>
			</g>
		</g>
		<g>
			<g>
				<g>
					<path style="fill:#E8505B;" d="M348.3,159.955l1.307,12.678c0.107,1.036,0.97,1.831,2.012,1.852l0,0
						c1.099,0.022,2.022-0.822,2.1-1.918l0.906-12.829c0.069-0.971-0.73-1.783-1.702-1.731l-3.098,0.166
						C348.9,158.221,348.205,159.034,348.3,159.955z"/>
				</g>
			</g>
			<g>
				<g>
					<path style="fill:#E8505B;" d="M354.796,181.618c-0.525,1.632-2.274,2.53-3.906,2.005c-1.632-0.525-2.53-2.274-2.005-3.906
						c0.525-1.632,2.274-2.53,3.906-2.005C354.424,178.237,355.321,179.986,354.796,181.618z"/>
				</g>
			</g>
		</g>
	</g>
</g>
<g id="Trees">
	<g>
		<g>
			<g>
				<g>
					<path style="fill:#263238;" d="M153.604,9.145l-9.152,85.724c0,0-1.09,11.077-6.636,7.873
						c-6.32-3.651-11.67-20.374-11.67-20.374l-1.267-2.986l-6.051,2.537l14.751,31.555l7.756,25.023l3.934,61.501l-12.038,283.901
						l34.569-0.087c0,0-2.049-269.326-1.159-281.791c0.891-12.465,51.621-49.155,51.621-49.155l-0.134-7.49l-52.55,35.09
						L180.898,9.13L153.604,9.145z"/>
				</g>
			</g>
		</g>
		<g>
			<g>
				<polyline style="fill:#263238;" points="126.055,82.122 113.035,51.797 132.682,6.552 129.333,6.552 108.335,48.814 
					101.111,13.39 97.51,13.321 102.952,51.797 113.035,71.481 87.821,67.536 86.101,71.481 115.332,76.477 119.828,83.601 				"/>
			</g>
		</g>
	</g>
	<g>
		<g>
			<g>
				<path style="fill:#263238;" d="M621.79,6.777c0,0-17.053,98.759-22.388,112.63c-5.335,13.87-10.67,29.875-10.67,29.875
					l-38.151-68.676l-6.316,3.412l39.133,77.001c0,0-21.339,25.607-22.406,48.013c-1.067,22.406,0,59.75,0,59.75l-18.985,213.051
					h30.721V269.848c0,0-6.402-54.415-3.201-64.018c3.201-9.603,21.339-40.545,21.339-40.545s19.448-24.54,21.994-49.08
					C615.407,91.665,630.815,7.52,630.815,7.52L621.79,6.777z"/>
			</g>
		</g>
	</g>
</g>
<g id="Plants">
	<g>
		<g>
			<g>
				<path style="fill:#455A64;" d="M667.296,441.272c-11.679-10.633-28.984-14.688-44.171-10.351
					c-4.853-20.258-27.52-34.381-47.844-29.811c-20.324,4.57-34.762,27.038-30.475,47.424c-13.176-5.98-29.421-4.59-41.389,3.542
					c-11.968,8.132-19.288,17.474-18.582,31.926l196.902,0.28C684.632,468.754,678.975,451.905,667.296,441.272z"/>
			</g>
		</g>
		<g>
			<g>
				<g>
					<path style="fill:#263238;" d="M549.549,473.502c0,0,0.189-1.339,1.077-3.602c0.907-2.237,2.615-5.41,5.754-8.453
						c3.098-3.016,7.754-5.866,13.516-6.662c5.711-0.74,12.348,0.644,17.775,4.57c2.04,1.457,3.818,3.206,5.217,5.096l-0.461,0.118
						c0.858-5.743,3.197-10.836,6.114-14.773c1.411-2.014,3.051-3.675,4.601-5.178c1.62-1.432,3.195-2.685,4.748-3.644
						c3.081-1.958,5.82-3.063,7.743-3.64c0.95-0.329,1.726-0.447,2.232-0.585c0.512-0.118,0.781-0.172,0.785-0.156
						c0.003,0.016-0.259,0.101-0.762,0.248c-0.497,0.167-1.262,0.313-2.197,0.668c-1.894,0.628-4.589,1.773-7.615,3.75
						c-1.525,0.969-3.07,2.225-4.659,3.654c-1.519,1.5-3.127,3.152-4.508,5.149c-2.856,3.904-5.138,8.93-5.972,14.577l-0.091,0.617
						l-0.37-0.499c-1.371-1.845-3.11-3.554-5.108-4.98c-5.313-3.846-11.815-5.216-17.409-4.518
						c-5.64,0.752-10.237,3.512-13.323,6.452c-3.126,2.965-4.865,6.07-5.821,8.264c-0.462,1.11-0.786,1.991-0.954,2.603
						c-0.088,0.279-0.16,0.505-0.218,0.69C549.589,473.426,549.558,473.504,549.549,473.502z"/>
				</g>
			</g>
		</g>
		<g style="opacity:0.3;">
			<g>
				<g>
					<path d="M588.716,449.458c-5.185-4.647-13.229-5.327-19.602-2.523c-6.373,2.804-11.096,8.647-13.577,15.152
						c4.63-5.505,12.163-7.708,19.336-7.176c7.174,0.532,13.805,3.784,17.572,9.912c2.322-12.012,10.512-22.014,21.732-26.892
						l2.416-0.812C605.951,434.93,593.762,439.837,588.716,449.458z"/>
				</g>
			</g>
		</g>
		<g>
			<g>
				<path style="fill:#455A64;" d="M662.815,417.364c-2.72,0.685-5.156,2.441-6.665,4.806c1.815,2.362,5.19,2.793,8.013,1.844
					s5.054-3.159,6.798-5.573C668.512,417.073,665.535,416.679,662.815,417.364z"/>
			</g>
		</g>
		<g>
			<g>
				<path style="fill:#455A64;" d="M660.626,400.467c-3.978,1.367-7.395,4.297-9.352,8.021c-1.957,3.724-2.432,8.2-1.302,12.252
					c4.453,0.335,8.312-3.001,10.076-7.104C661.812,409.532,661.577,404.831,660.626,400.467z"/>
			</g>
		</g>
	</g>
	<g>
		<g>
			<g>
				<g>
					<path style="fill:#E8505B;" d="M79.612,429.233c2.829,0.371,5.346,2.167,7.013,4.482c1.668,2.315,2.559,5.11,3.03,7.924
						c0.912,5.444-0.56,11.625-2.579,16.763c-5.55-2.604-8.508-9.072-9.802-12.447C75.229,440.621,74.772,429.737,79.612,429.233"/>
				</g>
			</g>
		</g>
		<g>
			<g>
				<g>
					<path style="fill:#E8505B;" d="M95.259,466.064c-1.761-2.657-1.719-6.294-0.214-9.103c1.505-2.81,4.318-4.796,7.386-5.661
						c1.418-0.4,3.057-0.544,4.263,0.303c1.128,0.792,1.587,2.304,1.408,3.67c-0.179,1.366-0.902,2.603-1.746,3.692
						C103.462,462.7,99.975,465.782,95.259,466.064"/>
				</g>
			</g>
		</g>
		<g>
			<g>
				<g>
					<g>
						<path style="fill:#263238;" d="M93.857,483.307c-0.043,0.003-0.107-0.405-0.186-1.146c-0.078-0.74-0.171-1.813-0.245-3.143
							c-0.133-2.649-0.243-6.383,0.634-10.404c0.882-4.025,2.833-7.353,4.729-9.266c0.939-0.967,1.814-1.629,2.456-2.017
							c0.641-0.391,1.024-0.553,1.041-0.522c0.071,0.104-1.426,0.869-3.175,2.836c-1.761,1.935-3.585,5.182-4.446,9.104
							c-0.858,3.925-0.823,7.612-0.801,10.255C93.906,481.656,93.949,483.302,93.857,483.307z"/>
					</g>
				</g>
			</g>
		</g>
		<g>
			<g>
				<g>
					<g>
						<path style="fill:#263238;" d="M80.904,437.491c0.041-0.013,0.288,0.621,0.7,1.78c0.414,1.159,0.984,2.845,1.666,4.935
							c1.366,4.181,3.157,9.988,4.978,16.447c1.819,6.462,3.322,12.352,4.339,16.63c0.509,2.139,0.903,3.875,1.154,5.079
							c0.253,1.204,0.374,1.874,0.332,1.884c-0.041,0.01-0.241-0.641-0.566-1.827c-0.345-1.293-0.798-2.986-1.345-5.029
							c-1.125-4.249-2.693-10.114-4.51-16.569c-1.819-6.453-3.542-12.273-4.8-16.485c-0.6-2.028-1.098-3.709-1.478-4.992
							C81.033,438.164,80.863,437.504,80.904,437.491z"/>
					</g>
				</g>
			</g>
		</g>
		<g>
			<g>
				<g>
					<path style="fill:#E8505B;" d="M87.867,471.24c-2.707-6.15-8.56-10.813-15.16-12.077c-1.68-0.322-3.753-0.276-4.687,1.158
						c-0.936,1.436-0.135,3.359,0.873,4.745c4.194,5.768,12.109,8.535,18.983,6.638"/>
				</g>
			</g>
		</g>
		<g>
			<g>
				<g>
					<g>
						<path style="fill:#263238;" d="M74.552,463.999c0.007-0.042,0.399,0,1.106,0.113c0.355,0.05,0.786,0.128,1.275,0.271
							c0.49,0.136,1.06,0.259,1.656,0.497c1.218,0.404,2.613,1.049,4.082,1.903c1.45,0.885,2.963,1.997,4.383,3.355
							c1.403,1.376,2.564,2.852,3.495,4.273c0.901,1.441,1.591,2.814,2.034,4.018c0.257,0.588,0.398,1.154,0.55,1.639
							c0.158,0.484,0.251,0.912,0.312,1.265c0.136,0.703,0.19,1.092,0.148,1.101c-0.118,0.027-0.421-1.525-1.415-3.84
							c-0.486-1.161-1.2-2.482-2.106-3.872c-0.936-1.37-2.081-2.799-3.449-4.141c-1.385-1.323-2.849-2.421-4.249-3.312
							c-1.418-0.86-2.762-1.532-3.938-1.98C76.091,464.371,74.529,464.118,74.552,463.999z"/>
					</g>
				</g>
			</g>
		</g>
	</g>
</g>
<g id="Floor">
	<g>
		<g>
			<g>
				<path style="fill:#263238;" d="M719.487,484.28c0,0.144-153.918,0.26-343.742,0.26c-189.89,0-343.775-0.117-343.775-0.26
					c0-0.144,153.885-0.26,343.775-0.26C565.568,484.02,719.487,484.137,719.487,484.28z"/>
			</g>
		</g>
	</g>
</g>
</svg>
